<svg xmlns="http://www.w3.org/2000/svg" xmlns:xlink="http://www.w3.org/1999/xlink" width="500" zoomAndPan="magnify" viewBox="0 0 375 374.999991" height="500" preserveAspectRatio="xMidYMid meet" version="1.0"><defs><g/><clipPath id="f09aa1e001"><path d="M 108.402344 33.464844 L 266.550781 33.464844 L 266.550781 119.734375 L 108.402344 119.734375 Z M 108.402344 33.464844 " clip-rule="nonzero"/></clipPath><clipPath id="ed688224f6"><path d="M 273.046875 119.734375 L 262.160156 118.910156 L 259.320312 117.414062 L 250.398438 119.160156 L 223.730469 118.339844 L 150.351562 118.609375 L 120.34375 118.910156 L 116.5625 117.339844 L 111.261719 119.734375 L 102.15625 119.734375 L 102.15625 29.183594 L 273.046875 29.183594 Z M 273.046875 119.734375 " clip-rule="nonzero"/></clipPath><clipPath id="8a1c3f1a5d"><path d="M 103.761719 30.253906 L 271.371094 30.253906 L 271.371094 119.734375 L 103.761719 119.734375 Z M 103.761719 30.253906 " clip-rule="nonzero"/></clipPath><clipPath id="1c8d1e85d5"><path d="M 273.046875 119.734375 L 262.160156 118.910156 L 259.320312 117.414062 L 250.398438 119.160156 L 223.730469 118.339844 L 150.351562 118.609375 L 120.34375 118.910156 L 116.5625 117.339844 L 111.261719 119.734375 L 102.15625 119.734375 L 102.15625 29.183594 L 273.046875 29.183594 Z M 273.046875 119.734375 " clip-rule="nonzero"/></clipPath><clipPath id="c7bd6f3e46"><path d="M 103.050781 29.359375 L 272.261719 29.359375 L 272.261719 119.734375 L 103.050781 119.734375 Z M 103.050781 29.359375 " clip-rule="nonzero"/></clipPath><clipPath id="c3f54270b9"><path d="M 273.046875 119.734375 L 262.160156 118.910156 L 259.320312 117.414062 L 250.398438 119.160156 L 223.730469 118.339844 L 150.351562 118.609375 L 120.34375 118.910156 L 116.5625 117.339844 L 111.261719 119.734375 L 102.15625 119.734375 L 102.15625 29.183594 L 273.046875 29.183594 Z M 273.046875 119.734375 " clip-rule="nonzero"/></clipPath><clipPath id="eaffec8c96"><path d="M 115.007812 41.855469 L 260 41.855469 L 260 102.1875 L 115.007812 102.1875 Z M 115.007812 41.855469 " clip-rule="nonzero"/></clipPath><clipPath id="369f5ba4d6"><path d="M 273.046875 119.734375 L 262.160156 118.910156 L 259.320312 117.414062 L 250.398438 119.160156 L 223.730469 118.339844 L 150.351562 118.609375 L 120.34375 118.910156 L 116.5625 117.339844 L 111.261719 119.734375 L 102.15625 119.734375 L 102.15625 29.183594 L 273.046875 29.183594 Z M 273.046875 119.734375 " clip-rule="nonzero"/></clipPath><clipPath id="726f3d4b25"><path d="M 114.652344 41.675781 L 260.304688 41.675781 L 260.304688 102.542969 L 114.652344 102.542969 Z M 114.652344 41.675781 " clip-rule="nonzero"/></clipPath><clipPath id="5f0dee3a41"><path d="M 273.046875 119.734375 L 262.160156 118.910156 L 259.320312 117.414062 L 250.398438 119.160156 L 223.730469 118.339844 L 150.351562 118.609375 L 120.34375 118.910156 L 116.5625 117.339844 L 111.261719 119.734375 L 102.15625 119.734375 L 102.15625 29.183594 L 273.046875 29.183594 Z M 273.046875 119.734375 " clip-rule="nonzero"/></clipPath><clipPath id="aabcc45258"><path d="M 103.226562 29.894531 L 271.90625 29.894531 L 271.90625 85.050781 L 103.226562 85.050781 Z M 103.226562 29.894531 " clip-rule="nonzero"/></clipPath><clipPath id="571a1b3f77"><path d="M 273.046875 119.734375 L 262.160156 118.910156 L 259.320312 117.414062 L 250.398438 119.160156 L 223.730469 118.339844 L 150.351562 118.609375 L 120.34375 118.910156 L 116.5625 117.339844 L 111.261719 119.734375 L 102.15625 119.734375 L 102.15625 29.183594 L 273.046875 29.183594 Z M 273.046875 119.734375 " clip-rule="nonzero"/></clipPath><clipPath id="fed1de11c5"><path d="M 102.394531 29.183594 L 272.621094 29.183594 L 272.621094 85.585938 L 102.394531 85.585938 Z M 102.394531 29.183594 " clip-rule="nonzero"/></clipPath><clipPath id="6b8f2b21a9"><path d="M 273.046875 119.734375 L 262.160156 118.910156 L 259.320312 117.414062 L 250.398438 119.160156 L 223.730469 118.339844 L 150.351562 118.609375 L 120.34375 118.910156 L 116.5625 117.339844 L 111.261719 119.734375 L 102.15625 119.734375 L 102.15625 29.183594 L 273.046875 29.183594 Z M 273.046875 119.734375 " clip-rule="nonzero"/></clipPath><clipPath id="6860cef114"><path d="M 147.851562 75.769531 L 227.105469 75.769531 L 227.105469 104.863281 L 147.851562 104.863281 Z M 147.851562 75.769531 " clip-rule="nonzero"/></clipPath><clipPath id="0a86dad5d1"><path d="M 273.046875 119.734375 L 262.160156 118.910156 L 259.320312 117.414062 L 250.398438 119.160156 L 223.730469 118.339844 L 150.351562 118.609375 L 120.34375 118.910156 L 116.5625 117.339844 L 111.261719 119.734375 L 102.15625 119.734375 L 102.15625 29.183594 L 273.046875 29.183594 Z M 273.046875 119.734375 " clip-rule="nonzero"/></clipPath><clipPath id="6045dc9e77"><path d="M 146.78125 74.519531 L 228.351562 74.519531 L 228.351562 105.222656 L 146.78125 105.222656 Z M 146.78125 74.519531 " clip-rule="nonzero"/></clipPath><clipPath id="becb3e40ac"><path d="M 273.046875 119.734375 L 262.160156 118.910156 L 259.320312 117.414062 L 250.398438 119.160156 L 223.730469 118.339844 L 150.351562 118.609375 L 120.34375 118.910156 L 116.5625 117.339844 L 111.261719 119.734375 L 102.15625 119.734375 L 102.15625 29.183594 L 273.046875 29.183594 Z M 273.046875 119.734375 " clip-rule="nonzero"/></clipPath><clipPath id="f8d878a506"><path d="M 151.066406 79.160156 L 223.890625 79.160156 L 223.890625 119.734375 L 151.066406 119.734375 Z M 151.066406 79.160156 " clip-rule="nonzero"/></clipPath><clipPath id="d677592061"><path d="M 273.046875 119.734375 L 262.160156 118.910156 L 259.320312 117.414062 L 250.398438 119.160156 L 223.730469 118.339844 L 150.351562 118.609375 L 120.34375 118.910156 L 116.5625 117.339844 L 111.261719 119.734375 L 102.15625 119.734375 L 102.15625 29.183594 L 273.046875 29.183594 Z M 273.046875 119.734375 " clip-rule="nonzero"/></clipPath><clipPath id="6bd0e56b81"><path d="M 155 82.910156 L 220.140625 82.910156 L 220.140625 119.734375 L 155 119.734375 Z M 155 82.910156 " clip-rule="nonzero"/></clipPath><clipPath id="bbd1f852b7"><path d="M 273.046875 119.734375 L 262.160156 118.910156 L 259.320312 117.414062 L 250.398438 119.160156 L 223.730469 118.339844 L 150.351562 118.609375 L 120.34375 118.910156 L 116.5625 117.339844 L 111.261719 119.734375 L 102.15625 119.734375 L 102.15625 29.183594 L 273.046875 29.183594 Z M 273.046875 119.734375 " clip-rule="nonzero"/></clipPath><clipPath id="b7f8656b9d"><path d="M 193 98.921875 L 271 98.921875 L 271 261 L 193 261 Z M 193 98.921875 " clip-rule="nonzero"/></clipPath><clipPath id="4f508d268a"><path d="M 211 119 L 301 119 L 301 273.671875 L 211 273.671875 Z M 211 119 " clip-rule="nonzero"/></clipPath><clipPath id="45b8d98fce"><path d="M 104 98.921875 L 182 98.921875 L 182 261 L 104 261 Z M 104 98.921875 " clip-rule="nonzero"/></clipPath><clipPath id="98692cb7b4"><path d="M 74.039062 119 L 164 119 L 164 273.671875 L 74.039062 273.671875 Z M 74.039062 119 " clip-rule="nonzero"/></clipPath></defs><rect x="-37.5" width="450" fill="#ffffff" y="-37.499999" height="449.999989" fill-opacity="1"/><rect x="-37.5" width="450" fill="#000000" y="-37.499999" height="449.999989" fill-opacity="1"/><g clip-path="url(#f09aa1e001)"><g clip-path="url(#ed688224f6)"><path fill="#ffffff" d="M 187.53125 79.214844 L 187.601562 33.609375 M 191.246094 79.394531 L 194.6875 43.515625 M 180.550781 43.78125 L 183.980469 79.375 M 195.027344 80 L 200.917969 52.707031 M 174.5 53.332031 L 180.214844 79.945312 M 213.199219 89.851562 L 243.613281 59.4375 M 215.625 92.53125 L 242.417969 70.449219 M 210.523438 87.40625 L 232.546875 60.703125 M 217.894531 95.617188 L 239.832031 81.480469 M 207.449219 85.160156 L 221.375 63.632812 M 223.835938 115.519531 L 266.496094 115.449219 M 223.640625 111.808594 L 258.039062 108.503906 M 223.660156 119.074219 L 257.734375 122.339844 M 223.070312 108.042969 L 247.953125 102.667969 M 223.085938 122.839844 L 248.523438 128.28125 M 213.199219 141.152344 L 243.578125 171.515625 M 215.054688 137.976562 L 242.292969 160.429688 M 210.523438 143.578125 L 232.496094 170.230469 M 217.660156 135.207031 L 239.917969 149.542969 M 207.449219 145.863281 L 221.605469 167.730469 M 187.53125 151.808594 L 187.601562 194.683594 M 191.246094 151.628906 L 194.5625 186.167969 M 183.980469 151.628906 L 180.675781 185.953125 M 200.507812 176.421875 L 195.027344 151.039062 M 180.214844 151.078125 L 174.769531 176.421875 M 161.882812 141.152344 L 131.410156 171.601562 M 164.558594 143.617188 L 142.710938 170.121094 M 160.042969 137.976562 L 132.785156 160.429688 M 167.664062 145.882812 L 153.722656 167.496094 M 157.417969 135.207031 L 135.605469 149.308594 M 108.421875 115.429688 L 151.226562 115.503906 M 151.421875 111.808594 L 117.152344 108.503906 M 152.011719 119.019531 L 117.152344 122.375 M 152.011719 108.007812 L 127.394531 102.6875 M 152.011719 122.855469 L 126.984375 128.230469 M 161.882812 89.835938 L 131.449219 59.4375 M 164.578125 87.40625 L 142.585938 60.738281 M 159.453125 92.53125 L 132.769531 70.558594 M 167.664062 85.140625 L 153.6875 63.453125 M 157.417969 95.617188 L 135.695312 81.140625 " fill-opacity="1" fill-rule="nonzero"/><path fill="#ffffff" d="M 187.976562 79.214844 L 187.085938 79.214844 L 187.15625 33.609375 L 188.050781 33.609375 Z M 183.550781 79.429688 L 180.105469 43.835938 L 181 43.746094 L 184.425781 79.339844 Z M 191.671875 79.445312 L 190.78125 79.355469 L 194.226562 43.480469 L 195.117188 43.570312 Z M 179.765625 80.054688 L 174.054688 53.4375 L 174.929688 53.261719 L 180.640625 79.875 Z M 195.457031 80.089844 L 194.582031 79.894531 L 200.472656 52.601562 L 201.347656 52.796875 Z M 167.289062 85.371094 L 153.3125 63.703125 L 154.0625 63.222656 L 168.039062 84.890625 Z M 207.828125 85.40625 L 207.078125 84.925781 L 221 63.398438 L 221.75 63.882812 Z M 164.238281 87.691406 L 142.246094 61.023438 L 142.941406 60.453125 L 164.933594 87.105469 Z M 210.859375 87.710938 L 210.164062 87.140625 L 232.191406 60.417969 L 232.886719 60.988281 Z M 161.558594 90.171875 L 131.144531 59.742188 L 131.769531 59.117188 L 162.203125 89.511719 Z M 213.503906 90.171875 L 212.878906 89.550781 L 243.3125 59.132812 L 243.9375 59.757812 Z M 159.152344 92.886719 L 132.484375 70.894531 L 133.054688 70.199219 L 159.722656 92.191406 Z M 215.914062 92.886719 L 215.339844 92.191406 L 242.132812 70.109375 L 242.703125 70.808594 Z M 157.167969 95.992188 L 135.445312 81.515625 L 135.945312 80.765625 L 157.667969 95.242188 Z M 218.144531 95.992188 L 217.660156 95.242188 L 239.597656 81.105469 L 240.082031 81.855469 Z M 151.921875 108.453125 L 127.308594 103.132812 L 127.503906 102.257812 L 152.117188 107.578125 Z M 223.160156 108.46875 L 222.960938 107.59375 L 247.84375 102.222656 L 248.042969 103.097656 Z M 151.386719 112.253906 L 117.113281 108.953125 L 117.203125 108.058594 L 151.476562 111.359375 Z M 223.695312 112.253906 L 223.605469 111.359375 L 258 108.058594 L 258.089844 108.953125 Z M 151.242188 115.964844 L 108.441406 115.894531 L 108.441406 115.003906 L 151.242188 115.074219 Z M 223.835938 115.964844 L 223.835938 115.074219 L 266.496094 115.003906 L 266.496094 115.894531 Z M 257.699219 122.785156 L 223.625 119.519531 L 223.710938 118.625 L 257.785156 121.910156 Z M 117.203125 122.820312 L 117.113281 121.929688 L 151.976562 118.574219 L 152.066406 119.464844 Z M 127.074219 128.675781 L 126.898438 127.800781 L 151.921875 122.429688 L 152.117188 123.304688 Z M 248.414062 128.730469 L 223 123.265625 L 223.175781 122.390625 L 248.613281 127.835938 Z M 135.855469 149.703125 L 135.355469 148.953125 L 157.167969 134.832031 L 157.652344 135.582031 Z M 239.667969 149.933594 L 217.429688 135.582031 L 217.910156 134.832031 L 240.152344 149.167969 Z M 242.042969 160.785156 L 214.769531 138.332031 L 215.339844 137.636719 L 242.578125 160.089844 Z M 133.089844 160.785156 L 132.519531 160.089844 L 159.757812 137.636719 L 160.328125 138.332031 Z M 154.117188 167.75 L 153.367188 167.265625 L 167.289062 145.648438 L 168.039062 146.132812 Z M 221.230469 167.980469 L 207.078125 146.097656 L 207.828125 145.613281 L 221.980469 167.480469 Z M 143.050781 170.40625 L 142.355469 169.835938 L 164.21875 143.3125 L 164.917969 143.882812 Z M 232.136719 170.515625 L 210.164062 143.867188 L 210.859375 143.292969 L 232.832031 169.945312 Z M 243.257812 171.835938 L 212.878906 141.472656 L 213.503906 140.847656 L 243.882812 171.210938 Z M 131.714844 171.925781 L 131.089844 171.300781 L 161.558594 140.832031 L 162.183594 141.457031 Z M 175.195312 176.53125 L 174.324219 176.351562 L 179.765625 151.003906 L 180.640625 151.183594 Z M 200.078125 176.53125 L 194.597656 151.148438 L 195.472656 150.953125 L 200.953125 176.332031 Z M 181.125 186.007812 L 180.230469 185.917969 L 183.53125 151.59375 L 184.425781 151.683594 Z M 194.117188 186.222656 L 190.796875 151.683594 L 191.691406 151.59375 L 195.011719 186.132812 Z M 187.15625 194.683594 L 187.085938 151.808594 L 187.976562 151.808594 L 188.050781 194.683594 L 187.15625 194.683594 " fill-opacity="1" fill-rule="nonzero"/></g></g><g clip-path="url(#8a1c3f1a5d)"><g clip-path="url(#1c8d1e85d5)"><path fill="#ffffff" d="M 199.472656 57.757812 L 203.632812 53.851562 L 201.648438 48.925781 L 197.472656 52.441406 Z M 194.191406 48.011719 L 197.542969 43.925781 L 194.992188 39.015625 L 191.617188 43.105469 Z M 177.605469 53.226562 L 174.019531 48.925781 L 172.019531 54.242188 L 175.804688 57.757812 Z M 183.640625 43.496094 L 180.285156 39.015625 L 177.75 43.925781 L 181.105469 48.011719 Z M 190.53125 34.785156 L 187.550781 30.269531 L 184.585938 34.785156 L 187.550781 39.300781 Z M 187.601562 47.550781 L 184.820312 60.8125 L 187.601562 77.714844 L 190.296875 60.722656 Z M 235.742188 84.085938 L 241.042969 84.585938 L 243.277344 79.105469 L 238.171875 79 Z M 238.882812 73.449219 L 244.273438 72.878906 L 245.828125 67.683594 L 240.617188 68.058594 Z M 224.105469 65.328125 L 224 59.828125 L 218.714844 61.863281 L 219 67.363281 Z M 235.046875 62.667969 L 235.4375 57.277344 L 230.246094 58.832031 L 229.65625 64.222656 Z M 245.792969 61.453125 L 246.757812 56.222656 L 241.328125 57.1875 L 240.367188 62.613281 Z M 235.652344 67.398438 L 224.300781 74.804688 L 214.324219 88.726562 L 228.246094 78.625 Z M 248.738281 105.578125 L 252.664062 101.8125 L 247.542969 99.832031 L 243.8125 103.613281 Z M 258.269531 111.613281 L 262.554688 108.058594 L 257.644531 105.523438 L 253.558594 108.878906 Z M 243.8125 127.246094 L 247.738281 131.03125 L 252.664062 129.050781 L 248.933594 125.285156 Z M 253.558594 121.945312 L 257.839844 125.300781 L 262.554688 122.765625 L 258.464844 119.214844 Z M 262.265625 115.484375 L 266.800781 118.464844 L 271.316406 115.503906 L 266.800781 112.519531 Z M 242.363281 112.734375 L 225.390625 115.429688 L 242.292969 118.234375 L 255.574219 115.449219 Z M 237.921875 151.59375 L 243.222656 151.878906 L 241.1875 147.738281 L 235.707031 146.882812 Z M 240.382812 162.714844 L 245.773438 163.285156 L 244.417969 158.464844 L 238.832031 157.503906 Z M 218.964844 163.605469 L 219.054688 168.910156 L 223.960938 171.140625 L 224.070312 165.839844 Z M 229.601562 166.75 L 229.996094 171.941406 L 235.386719 173.691406 L 234.617188 168.300781 Z M 240.332031 168.335938 L 241.492188 173.746094 L 246.71875 174.710938 L 245.757812 169.480469 Z M 228.191406 152.324219 L 214.269531 142.222656 L 224.246094 156.144531 L 235.601562 163.554688 Z M 197.277344 176.65625 L 201.238281 180.5625 L 203.222656 175.636719 L 199.457031 171.710938 Z M 191.421875 186.167969 L 194.972656 190.453125 L 197.707031 185.742188 L 194.152344 181.457031 Z M 175.804688 171.710938 L 171.839844 175.636719 L 174.019531 180.5625 L 178 176.65625 Z M 181.105469 181.457031 L 177.75 185.742188 L 180.285156 190.433594 L 183.835938 186.152344 Z M 187.550781 190.167969 L 184.195312 194.683594 L 187.550781 199.199219 L 190.707031 194.683594 Z M 190.296875 170.28125 L 187.601562 153.289062 L 184.800781 170.175781 L 187.601562 183.472656 Z M 151.902344 165.785156 L 151.226562 171.085938 L 156.132812 169.050781 L 156.222656 163.570312 Z M 140.980469 168.25 L 139.820312 173.636719 L 145.015625 171.890625 L 145.585938 166.695312 Z M 139.515625 146.828125 L 134.234375 146.917969 L 131.984375 151.808594 L 137.464844 151.71875 Z M 136.355469 157.464844 L 131.164062 158.234375 L 129.414062 163.230469 L 134.804688 162.464844 Z M 134.769531 168.195312 L 129.539062 169.355469 L 128.378906 174.585938 L 133.804688 173.425781 Z M 150.777344 156.074219 L 160.882812 142.152344 L 146.960938 152.128906 L 139.550781 163.480469 Z M 131.410156 103.597656 L 127.894531 100.007812 L 122.578125 101.792969 L 126.308594 105.382812 Z M 121.667969 108.898438 L 117.578125 105.542969 L 112.671875 108.078125 L 116.757812 111.433594 Z M 126.074219 125.265625 L 122.539062 129.050781 L 127.484375 130.835938 L 131.394531 127.246094 Z M 116.738281 119.410156 L 112.652344 122.785156 L 117.363281 125.320312 L 121.648438 121.964844 Z M 108.441406 112.519531 L 103.90625 115.484375 L 108.421875 118.464844 L 112.9375 115.503906 Z M 119.648438 115.429688 L 132.910156 118.234375 L 149.816406 115.449219 L 132.839844 112.753906 Z M 139.5 67.46875 L 146.90625 78.820312 L 160.828125 88.800781 L 150.726562 74.875 Z M 156.1875 67.398438 L 156.292969 62.097656 L 151.386719 59.863281 L 151.082031 65.148438 Z M 145.550781 64.257812 L 144.960938 58.867188 L 139.765625 57.3125 L 140.335938 62.507812 Z M 137.429688 79.410156 L 131.929688 79.125 L 134.355469 84.210938 L 139.460938 84.105469 Z M 134.570312 68.289062 L 129.378906 67.703125 L 131.125 72.894531 L 136.320312 73.46875 Z M 134.714844 62.757812 L 129.484375 61.597656 L 128.324219 56.367188 L 133.554688 57.527344 L 134.714844 62.757812 " fill-opacity="1" fill-rule="nonzero"/></g></g><g clip-path="url(#c7bd6f3e46)"><g clip-path="url(#c3f54270b9)"><path fill="#ffffff" d="M 185.121094 34.785156 L 187.550781 38.5 L 189.976562 34.804688 L 187.550781 31.089844 Z M 187.550781 40.105469 L 184.050781 34.769531 L 187.550781 29.449219 L 191.046875 34.785156 Z M 178.265625 43.871094 L 180.855469 47.210938 L 183.085938 43.515625 L 180.339844 39.855469 Z M 180.945312 48.796875 L 177.195312 43.980469 L 180.195312 38.195312 L 184.15625 43.480469 Z M 192.152344 43.160156 L 194.261719 47.210938 L 196.992188 43.871094 L 194.886719 39.820312 Z M 194.101562 48.816406 L 191.101562 43.050781 L 195.082031 38.214844 L 198.0625 43.996094 Z M 172.539062 54.136719 L 175.285156 56.992188 L 177.070312 53.277344 L 174.160156 49.796875 Z M 175.535156 58.527344 L 171.503906 54.351562 L 173.859375 48.03125 L 178.125 53.152344 Z M 198.027344 52.566406 L 199.992188 56.972656 L 203.113281 53.742188 L 201.472656 49.65625 Z M 199.722656 58.542969 L 196.9375 52.316406 L 201.828125 48.171875 L 204.148438 53.957031 Z M 241.722656 57.582031 L 240.917969 62.042969 L 245.417969 61.078125 L 246.222656 56.777344 Z M 239.8125 63.183594 L 240.957031 56.8125 L 247.328125 55.6875 L 246.183594 61.847656 Z M 129.859375 61.222656 L 134.125 62.167969 L 133.179688 57.902344 L 128.914062 56.957031 Z M 135.304688 63.347656 L 129.109375 61.972656 L 127.734375 55.777344 L 133.910156 57.152344 Z M 230.636719 59.152344 L 230.15625 63.597656 L 234.617188 62.3125 L 234.941406 57.867188 Z M 229.136719 64.828125 L 229.816406 58.472656 L 235.921875 56.652344 L 235.476562 62.988281 Z M 140.765625 62.167969 L 145.03125 63.597656 L 144.550781 59.1875 L 140.285156 57.917969 Z M 146.066406 64.898438 L 139.945312 62.828125 L 139.265625 56.671875 L 145.386719 58.507812 Z M 219.179688 62.167969 L 219.429688 66.71875 L 223.675781 65.023438 L 223.585938 60.472656 Z M 218.589844 68.003906 L 218.25 61.5625 L 224.445312 59.167969 L 224.570312 65.59375 Z M 151.546875 64.882812 L 155.757812 66.71875 L 155.847656 62.382812 L 151.796875 60.542969 Z M 156.617188 68.074219 L 150.617188 65.453125 L 150.976562 59.203125 L 156.742188 61.828125 Z M 240.9375 68.46875 L 239.507812 72.753906 L 243.917969 72.429688 L 245.183594 68.148438 Z M 238.242188 73.753906 L 240.292969 67.628906 L 246.433594 67.183594 L 244.613281 73.304688 Z M 131.449219 72.484375 L 135.679688 72.949219 L 134.25 68.699219 L 130.039062 68.238281 Z M 136.945312 74.003906 L 130.769531 73.304688 L 128.71875 67.183594 L 134.894531 67.878906 Z M 185.265625 60.828125 L 187.585938 74.929688 L 189.832031 60.738281 L 187.601562 49.746094 Z M 187.621094 80.515625 L 184.371094 60.8125 L 187.621094 45.371094 L 190.761719 60.738281 Z M 132.660156 79.625 L 134.625 83.765625 L 138.785156 83.390625 L 137.125 79.855469 Z M 134.089844 84.710938 L 131.199219 78.644531 L 137.695312 78.980469 L 140.121094 84.140625 Z M 236.402344 83.710938 L 240.722656 84.121094 L 242.578125 79.535156 L 238.421875 79.445312 Z M 241.3125 85.050781 L 235.046875 84.460938 L 237.867188 78.519531 L 243.902344 78.644531 Z M 224.621094 75.125 L 216.285156 86.746094 L 227.90625 78.304688 L 234.101562 68.933594 Z M 212.34375 90.710938 L 223.980469 74.484375 L 237.207031 65.863281 L 228.566406 78.945312 L 228.496094 79 Z M 147.226562 78.519531 L 158.847656 86.835938 L 150.40625 75.214844 L 141.050781 69.039062 Z M 162.808594 90.78125 L 146.585938 79.144531 L 137.964844 65.917969 L 151.046875 74.554688 Z M 123.398438 101.988281 L 126.398438 104.882812 L 130.589844 103.417969 L 127.753906 100.527344 Z M 126.164062 105.898438 L 121.71875 101.617188 L 128.003906 99.507812 L 132.214844 103.792969 Z M 244.578125 103.4375 L 248.613281 105.042969 L 251.824219 101.953125 L 247.628906 100.332031 Z M 248.828125 106.09375 L 243.007812 103.773438 L 247.417969 99.3125 L 253.46875 101.652344 Z M 113.472656 108.148438 L 116.8125 110.898438 L 120.863281 108.808594 L 117.507812 106.058594 Z M 116.6875 111.949219 L 111.847656 107.988281 L 117.632812 105.007812 L 122.46875 108.988281 Z M 254.34375 108.828125 L 258.234375 111.074219 L 261.765625 108.148438 L 257.714844 106.058594 Z M 258.324219 112.164062 L 252.789062 108.96875 L 257.589844 105.007812 L 263.375 107.988281 Z M 228.175781 115.449219 L 242.277344 117.785156 L 253.359375 115.449219 L 242.347656 113.199219 Z M 242.292969 118.699219 L 242.203125 118.679688 L 222.585938 115.429688 L 242.363281 112.289062 L 257.75 115.449219 Z M 121.84375 115.449219 L 132.910156 117.785156 L 147.011719 115.464844 L 132.839844 113.199219 Z M 132.894531 118.699219 L 117.453125 115.429688 L 132.824219 112.289062 L 132.894531 112.308594 L 152.601562 115.429688 Z M 263.089844 115.484375 L 266.800781 117.929688 L 270.515625 115.503906 L 266.800781 113.058594 Z M 266.800781 119 L 261.464844 115.484375 L 266.800781 111.984375 L 272.121094 115.503906 Z M 104.726562 115.484375 L 108.441406 117.929688 L 112.152344 115.503906 L 108.457031 113.058594 Z M 108.421875 119 L 103.101562 115.484375 L 108.441406 111.984375 L 113.757812 115.503906 Z M 254.359375 122.019531 L 257.894531 124.785156 L 261.785156 122.695312 L 258.410156 119.785156 Z M 257.785156 125.835938 L 252.753906 121.890625 L 258.539062 118.679688 L 263.339844 122.855469 Z M 113.457031 122.695312 L 117.328125 124.785156 L 120.84375 122.035156 L 116.8125 119.945312 Z M 117.417969 125.835938 L 111.847656 122.855469 L 116.6875 118.875 L 122.46875 121.855469 Z M 123.34375 128.855469 L 127.394531 130.316406 L 130.574219 127.410156 L 126.21875 125.800781 Z M 127.59375 131.335938 L 121.757812 129.230469 L 125.949219 124.75 L 132.234375 127.070312 Z M 244.613281 127.410156 L 247.828125 130.496094 L 251.859375 128.871094 L 248.828125 125.785156 Z M 247.628906 131.53125 L 242.988281 127.070312 L 249.039062 124.75 L 253.46875 129.191406 Z M 134.5 147.347656 L 132.679688 151.363281 L 137.160156 151.292969 L 138.820312 147.273438 Z M 131.289062 152.273438 L 133.929688 146.472656 L 140.175781 146.363281 L 137.75 152.164062 Z M 238.207031 151.148438 L 242.472656 151.378906 L 240.867188 148.132812 L 236.4375 147.433594 Z M 243.9375 152.34375 L 237.617188 152.003906 L 234.902344 146.292969 L 241.453125 147.328125 Z M 131.484375 158.644531 L 130.074219 162.695312 L 134.464844 162.070312 L 135.714844 158.019531 Z M 128.753906 163.785156 L 130.824219 157.839844 L 137 156.914062 L 135.160156 162.855469 Z M 240.722656 162.304688 L 245.167969 162.785156 L 244.078125 158.859375 L 239.472656 158.054688 Z M 246.382812 163.804688 L 240.042969 163.125 L 238.207031 156.949219 L 244.773438 158.074219 Z M 147.28125 152.453125 L 141.085938 161.929688 L 150.441406 155.753906 L 158.882812 144.132812 Z M 138 165.035156 L 146.636719 151.808594 L 162.863281 140.171875 L 151.082031 156.394531 L 151.011719 156.429688 Z M 224.570312 155.824219 L 234.046875 162.019531 L 227.851562 152.648438 L 216.234375 144.203125 Z M 237.171875 165.105469 L 223.945312 156.484375 L 223.890625 156.414062 L 212.308594 140.261719 L 228.53125 152.023438 Z M 152.3125 166.089844 L 151.761719 170.390625 L 155.6875 168.765625 L 155.757812 164.320312 Z M 150.691406 171.800781 L 151.492188 165.5 L 156.6875 162.820312 L 156.578125 169.335938 Z M 219.5 168.605469 L 223.535156 170.441406 L 223.625 166.125 L 219.429688 164.285156 Z M 224.390625 171.816406 L 218.605469 169.195312 L 218.5 162.929688 L 224.515625 165.550781 Z M 141.371094 168.605469 L 140.425781 172.976562 L 144.601562 171.585938 L 145.066406 167.355469 Z M 139.230469 174.316406 L 140.605469 167.910156 L 146.121094 166.050781 L 145.425781 172.246094 Z M 230.40625 171.601562 L 234.832031 173.03125 L 234.207031 168.621094 L 230.101562 167.355469 Z M 235.921875 174.335938 L 229.566406 172.28125 L 229.101562 166.125 L 235.011719 167.960938 Z M 129.929688 169.710938 L 128.984375 173.976562 L 133.429688 173.03125 L 134.214844 168.765625 Z M 127.804688 175.15625 L 129.179688 168.980469 L 135.339844 167.605469 L 134.195312 173.78125 Z M 241.867188 173.371094 L 246.148438 174.175781 L 245.347656 169.890625 L 240.882812 168.945312 Z M 247.273438 175.28125 L 241.117188 174.136719 L 239.742188 167.75 L 246.132812 169.121094 Z M 172.359375 175.746094 L 174.144531 179.796875 L 177.445312 176.546875 L 175.644531 172.476562 Z M 173.859375 181.347656 L 171.304688 175.546875 L 175.945312 170.941406 L 178.515625 176.761719 Z M 197.8125 176.546875 L 201.078125 179.777344 L 202.703125 175.726562 L 199.597656 172.496094 Z M 201.402344 181.347656 L 196.742188 176.742188 L 199.3125 170.925781 L 203.738281 175.53125 Z M 185.246094 170.175781 L 187.585938 181.277344 L 189.832031 170.265625 L 187.585938 156.074219 Z M 187.601562 185.667969 L 184.355469 170.195312 L 184.371094 170.105469 L 187.601562 150.488281 L 190.746094 170.28125 Z M 191.976562 186.132812 L 194.9375 189.683594 L 197.1875 185.792969 L 194.242188 182.242188 Z M 195.046875 191.238281 L 190.886719 186.222656 L 194.101562 180.6875 L 198.257812 185.703125 Z M 178.265625 185.777344 L 180.355469 189.648438 L 183.28125 186.113281 L 181.050781 182.261719 Z M 180.195312 191.257812 L 177.195312 185.703125 L 181.140625 180.6875 L 184.355469 186.238281 Z M 184.746094 194.683594 L 187.53125 198.429688 L 190.15625 194.683594 L 187.53125 190.933594 Z M 187.566406 199.964844 L 183.640625 194.683594 L 187.566406 189.398438 L 191.261719 194.683594 L 187.566406 199.964844 " fill-opacity="1" fill-rule="nonzero"/></g></g><g clip-path="url(#eaffec8c96)"><g clip-path="url(#369f5ba4d6)"><path fill="#ffffff" d="M 200.902344 83.175781 L 216.839844 41.980469 M 174.109375 83.175781 L 158.1875 41.980469 M 115.007812 83.535156 L 155.132812 102.027344 M 219.875 102.027344 L 259.984375 83.535156 " fill-opacity="1" fill-rule="nonzero"/></g></g><g clip-path="url(#726f3d4b25)"><g clip-path="url(#5f0dee3a41)"><path fill="#ffffff" d="M 173.699219 83.335938 L 157.757812 42.140625 L 158.597656 41.820312 L 174.535156 83.015625 Z M 201.3125 83.335938 L 200.472656 83.015625 L 216.414062 41.820312 L 217.25 42.140625 Z M 220.070312 102.417969 L 219.695312 101.617188 L 259.804688 83.125 L 260.179688 83.925781 Z M 154.9375 102.417969 L 114.8125 83.925781 L 115.1875 83.125 L 155.292969 101.617188 L 154.9375 102.417969 " fill-opacity="1" fill-rule="nonzero"/></g></g><g clip-path="url(#aabcc45258)"><g clip-path="url(#571a1b3f77)"><path fill="#ffffff" d="M 221.480469 29.894531 L 214.824219 35.054688 L 216.285156 43.335938 L 222.945312 38.179688 Z M 152.066406 38.355469 L 158.722656 43.515625 L 160.167969 35.234375 L 153.527344 30.074219 Z M 107.976562 85.03125 L 116.328125 84.105469 L 111.597656 77.144531 L 103.246094 78.070312 Z M 267.015625 85.03125 L 258.660156 84.105469 L 263.390625 77.144531 L 271.746094 78.070312 L 267.015625 85.03125 " fill-opacity="1" fill-rule="nonzero"/></g></g><g clip-path="url(#fed1de11c5)"><g clip-path="url(#6b8f2b21a9)"><path fill="#ffffff" d="M 215.324219 35.234375 L 216.609375 42.535156 L 222.464844 38 L 221.179688 30.699219 Z M 215.984375 44.140625 L 214.359375 34.859375 L 221.800781 29.09375 L 223.425781 38.375 Z M 152.5625 38.179688 L 158.417969 42.710938 L 159.703125 35.410156 L 153.832031 30.878906 Z M 159.042969 44.320312 L 151.601562 38.554688 L 153.226562 29.269531 L 160.667969 35.035156 Z M 259.445312 83.746094 L 266.800781 84.570312 L 270.960938 78.445312 L 263.605469 77.625 Z M 267.246094 85.515625 L 257.875 84.480469 L 263.160156 76.679688 L 272.53125 77.714844 Z M 104.03125 78.445312 L 108.191406 84.570312 L 115.542969 83.746094 L 111.386719 77.625 Z M 107.742188 85.515625 L 102.460938 77.714844 L 111.832031 76.679688 L 117.113281 84.480469 L 107.742188 85.515625 " fill-opacity="1" fill-rule="nonzero"/></g></g><g clip-path="url(#6860cef114)"><g clip-path="url(#0a86dad5d1)"><path fill="#ffffff" d="M 203.613281 84.371094 L 203.722656 75.804688 L 197.9375 82 M 177.070312 82 L 171.289062 75.804688 L 171.394531 84.371094 M 156.417969 99.117188 L 147.960938 98.6875 L 153.992188 104.757812 M 218.589844 99.117188 L 227.050781 98.6875 L 221.015625 104.757812 " fill-opacity="1" fill-rule="nonzero"/></g></g><g clip-path="url(#6045dc9e77)"><g clip-path="url(#becb3e40ac)"><path fill="#ffffff" d="M 170.949219 84.371094 L 170.824219 74.644531 L 177.394531 81.695312 L 176.734375 82.300781 L 171.734375 76.949219 L 171.824219 84.355469 Z M 204.058594 84.371094 L 203.167969 84.355469 L 203.257812 76.949219 L 198.257812 82.300781 L 197.597656 81.695312 L 204.167969 74.644531 Z M 221.320312 105.078125 L 220.695312 104.453125 L 225.925781 99.207031 L 218.625 99.5625 L 218.589844 98.671875 L 228.191406 98.1875 Z M 153.671875 105.078125 L 146.816406 98.1875 L 156.4375 98.671875 L 156.402344 99.5625 L 149.101562 99.207031 L 154.332031 104.453125 L 153.671875 105.078125 " fill-opacity="1" fill-rule="nonzero"/></g></g><g clip-path="url(#f8d878a506)"><g clip-path="url(#d677592061)"><path fill="#ffffff" d="M 187.53125 79.214844 C 167.484375 79.214844 151.226562 95.457031 151.226562 115.519531 C 151.226562 135.582031 167.46875 151.808594 187.53125 151.808594 C 207.59375 151.808594 223.835938 135.566406 223.835938 115.503906 C 223.835938 95.4375 207.578125 79.214844 187.53125 79.214844 Z M 187.53125 81 C 206.523438 81.015625 221.910156 96.457031 221.890625 115.449219 C 221.875 134.441406 206.433594 149.828125 187.441406 149.808594 C 168.449219 149.792969 153.0625 134.351562 153.082031 115.359375 C 153.117188 96.351562 168.539062 80.980469 187.53125 81 " fill-opacity="1" fill-rule="nonzero"/></g></g><g clip-path="url(#6bd0e56b81)"><g clip-path="url(#bbd1f852b7)"><path fill="#ffffff" d="M 187.601562 82.960938 C 169.664062 82.960938 155.117188 97.511719 155.117188 115.449219 C 155.117188 133.386719 169.664062 147.933594 187.601562 147.933594 C 205.542969 147.933594 220.089844 133.386719 220.089844 115.449219 C 220.089844 97.511719 205.542969 82.960938 187.601562 82.960938 Z M 187.601562 84.746094 C 204.558594 84.746094 218.304688 98.492188 218.304688 115.449219 C 218.304688 132.40625 204.558594 146.148438 187.601562 146.148438 C 170.644531 146.148438 156.902344 132.40625 156.902344 115.449219 C 156.902344 107.308594 160.132812 99.492188 165.898438 93.742188 C 171.664062 87.976562 179.464844 84.746094 187.601562 84.746094 " fill-opacity="1" fill-rule="nonzero"/></g></g><g clip-path="url(#b7f8656b9d)"><path fill="#ffffff" d="M 193.089844 130.328125 C 193.089844 130.328125 212.140625 110.261719 224.972656 105.03125 C 237.804688 99.800781 270.085938 98.945312 270.085938 98.945312 L 270.085938 229.292969 C 270.085938 229.292969 240.746094 230.785156 227.914062 236.015625 C 215.082031 241.246094 193.089844 260.675781 193.089844 260.675781 Z M 193.089844 130.328125 " fill-opacity="1" fill-rule="nonzero"/></g><path fill="#ffffff" d="M 286.257812 108.550781 C 286.257812 108.550781 281.285156 108.691406 274.5 109.164062 L 274.5 234.417969 C 274.5 234.417969 245.15625 235.90625 232.324219 241.136719 C 225.644531 243.859375 209.890625 252.984375 202.640625 258.65625 L 198.96875 270.277344 C 198.96875 270.277344 223.898438 256.613281 236.730469 251.382812 C 249.566406 246.152344 286.253906 238.894531 286.253906 238.894531 Z M 286.257812 108.550781 " fill-opacity="1" fill-rule="nonzero"/><g clip-path="url(#4f508d268a)"><path fill="#ffffff" d="M 300.953125 119.4375 C 300.953125 119.4375 297.355469 119.542969 292.136719 119.859375 L 292.136719 244.023438 C 292.136719 244.023438 262.792969 245.511719 249.960938 250.742188 C 242.339844 253.847656 224.894531 260.03125 217.339844 266.109375 L 211.460938 273.476562 C 211.460938 273.476562 245.949219 261.742188 258.78125 256.511719 C 271.613281 251.28125 300.957031 249.78125 300.957031 249.78125 Z M 300.953125 119.4375 " fill-opacity="1" fill-rule="nonzero"/></g><g clip-path="url(#45b8d98fce)"><path fill="#ffffff" d="M 181.90625 130.328125 C 181.90625 130.328125 162.855469 110.261719 150.023438 105.03125 C 137.191406 99.800781 104.910156 98.945312 104.910156 98.945312 L 104.910156 229.292969 C 104.910156 229.292969 134.25 230.785156 147.082031 236.015625 C 159.914062 241.246094 181.90625 260.675781 181.90625 260.675781 Z M 181.90625 130.328125 " fill-opacity="1" fill-rule="nonzero"/></g><path fill="#ffffff" d="M 88.738281 108.550781 C 88.738281 108.550781 93.710938 108.691406 100.496094 109.164062 L 100.496094 234.417969 C 100.496094 234.417969 129.839844 235.90625 142.671875 241.136719 C 149.351562 243.859375 165.105469 252.984375 172.351562 258.65625 L 176.027344 270.277344 C 176.027344 270.277344 151.09375 256.613281 138.261719 251.382812 C 125.429688 246.152344 88.738281 238.898438 88.738281 238.898438 Z M 88.738281 108.550781 " fill-opacity="1" fill-rule="nonzero"/><g clip-path="url(#98692cb7b4)"><path fill="#ffffff" d="M 74.042969 119.4375 C 74.042969 119.4375 77.640625 119.542969 82.859375 119.859375 L 82.859375 244.023438 C 82.859375 244.023438 112.203125 245.511719 125.035156 250.742188 C 132.65625 253.847656 150.097656 260.03125 157.65625 266.109375 L 163.535156 273.476562 C 163.535156 273.476562 129.046875 261.742188 116.214844 256.511719 C 103.386719 251.28125 74.042969 249.785156 74.042969 249.785156 Z M 74.042969 119.4375 " fill-opacity="1" fill-rule="nonzero"/></g><g fill="#ffffff" fill-opacity="1"><g transform="translate(42.184153, 329.84532)"><g><path d="M 2.25 -16.625 C 2.25 -19.84375 2.828125 -22.78125 3.984375 -25.4375 C 5.140625 -28.09375 6.835938 -30.226562 9.078125 -31.84375 C 11.328125 -33.457031 13.910156 -34.265625 16.828125 -34.265625 C 21.234375 -34.265625 24.785156 -32.707031 27.484375 -29.59375 C 30.179688 -26.488281 31.53125 -22.414062 31.53125 -17.375 C 31.53125 -15.53125 31.34375 -13.738281 30.96875 -12 C 30.601562 -10.269531 30.03125 -8.625 29.25 -7.0625 C 28.46875 -5.507812 27.519531 -4.148438 26.40625 -2.984375 C 25.289062 -1.828125 23.921875 -0.898438 22.296875 -0.203125 C 20.671875 0.484375 18.894531 0.828125 16.96875 0.828125 C 12.394531 0.828125 8.796875 -0.765625 6.171875 -3.953125 C 3.554688 -7.148438 2.25 -11.375 2.25 -16.625 Z M 8.53125 -17.140625 C 8.53125 -14.054688 8.832031 -11.273438 9.4375 -8.796875 C 10.050781 -6.328125 10.992188 -4.320312 12.265625 -2.78125 C 13.546875 -1.238281 15.066406 -0.46875 16.828125 -0.46875 C 19.453125 -0.46875 21.507812 -1.988281 23 -5.03125 C 24.5 -8.082031 25.25 -12.132812 25.25 -17.1875 C 25.25 -22.4375 24.515625 -26.378906 23.046875 -29.015625 C 21.585938 -31.660156 19.5625 -32.984375 16.96875 -32.984375 C 16.0625 -32.984375 15.195312 -32.796875 14.375 -32.421875 C 13.5625 -32.046875 12.796875 -31.441406 12.078125 -30.609375 C 11.359375 -29.785156 10.738281 -28.765625 10.21875 -27.546875 C 9.707031 -26.335938 9.296875 -24.84375 8.984375 -23.0625 C 8.679688 -21.28125 8.53125 -19.304688 8.53125 -17.140625 Z M 8.53125 -17.140625 "/></g></g><g transform="translate(75.957588, 329.84532)"><g><path d="M 1.71875 0 L 1.71875 -1.0625 L 5.328125 -1.296875 L 5.328125 -32.15625 L 1.71875 -32.390625 L 1.71875 -33.453125 L 14.4375 -33.453125 C 16.15625 -33.453125 17.742188 -33.265625 19.203125 -32.890625 C 20.671875 -32.523438 21.988281 -31.972656 23.15625 -31.234375 C 24.332031 -30.492188 25.25 -29.5 25.90625 -28.25 C 26.570312 -27.007812 26.90625 -25.578125 26.90625 -23.953125 C 26.90625 -22.453125 26.648438 -21.097656 26.140625 -19.890625 C 25.640625 -18.691406 24.957031 -17.6875 24.09375 -16.875 C 23.238281 -16.0625 22.203125 -15.382812 20.984375 -14.84375 C 19.773438 -14.3125 18.492188 -13.921875 17.140625 -13.671875 C 15.796875 -13.429688 14.363281 -13.3125 12.84375 -13.3125 C 12.519531 -13.3125 12.015625 -13.328125 11.328125 -13.359375 L 11.328125 -1.296875 L 14.9375 -1.0625 L 14.9375 0 Z M 11.328125 -14.703125 C 11.867188 -14.648438 12.421875 -14.625 12.984375 -14.625 C 18.109375 -14.625 20.671875 -17.75 20.671875 -24 C 20.671875 -25.519531 20.5 -26.8125 20.15625 -27.875 C 19.8125 -28.945312 19.316406 -29.773438 18.671875 -30.359375 C 18.023438 -30.953125 17.304688 -31.375 16.515625 -31.625 C 15.722656 -31.882812 14.820312 -32.015625 13.8125 -32.015625 C 13.039062 -32.015625 12.210938 -31.953125 11.328125 -31.828125 Z M 11.328125 -14.703125 "/></g></g><g transform="translate(104.246649, 329.84532)"><g><path d="M 1.71875 0 L 1.71875 -1.0625 L 5.328125 -1.296875 L 5.328125 -32.15625 L 1.71875 -32.390625 L 1.71875 -33.453125 L 24.796875 -33.453125 L 25.03125 -23.90625 L 24.046875 -23.90625 C 23.859375 -24.96875 23.660156 -25.867188 23.453125 -26.609375 C 23.242188 -27.359375 22.941406 -28.109375 22.546875 -28.859375 C 22.160156 -29.609375 21.703125 -30.203125 21.171875 -30.640625 C 20.648438 -31.085938 19.976562 -31.453125 19.15625 -31.734375 C 18.34375 -32.015625 17.394531 -32.15625 16.3125 -32.15625 C 14.988281 -32.15625 13.328125 -32.078125 11.328125 -31.921875 L 11.328125 -18 C 11.796875 -17.957031 12.644531 -17.9375 13.875 -17.9375 C 15.519531 -17.9375 16.691406 -18.335938 17.390625 -19.140625 C 18.097656 -19.941406 18.453125 -21.40625 18.453125 -23.53125 L 19.734375 -23.53125 L 19.734375 -10.953125 L 18.453125 -10.953125 C 18.453125 -13.078125 18.09375 -14.554688 17.375 -15.390625 C 16.664062 -16.222656 15.5 -16.640625 13.875 -16.640625 C 12.675781 -16.640625 11.828125 -16.617188 11.328125 -16.578125 L 11.328125 -1.53125 C 13.328125 -1.375 15.3125 -1.296875 17.28125 -1.296875 C 18.195312 -1.296875 19.003906 -1.367188 19.703125 -1.515625 C 20.410156 -1.660156 21.019531 -1.90625 21.53125 -2.25 C 22.050781 -2.59375 22.488281 -2.976562 22.84375 -3.40625 C 23.207031 -3.84375 23.523438 -4.394531 23.796875 -5.0625 C 24.078125 -5.738281 24.300781 -6.410156 24.46875 -7.078125 C 24.644531 -7.753906 24.828125 -8.582031 25.015625 -9.5625 L 26.015625 -9.5625 L 25.765625 0 Z M 1.71875 0 "/></g></g><g transform="translate(132.606022, 329.84532)"><g><path d="M 1.625 -32.390625 L 1.625 -33.453125 L 6.640625 -33.453125 L 26.75 -9.078125 L 26.796875 -9.078125 L 26.46875 -32.15625 L 22.875 -32.390625 L 22.875 -33.453125 L 31.546875 -33.453125 L 31.546875 -32.390625 L 27.9375 -32.15625 L 28.203125 0.46875 L 26.765625 0.46875 L 6.65625 -23.984375 L 6.609375 -23.984375 L 6.9375 -1.296875 L 10.53125 -1.0625 L 10.53125 0 L 1.859375 0 L 1.859375 -1.0625 L 5.46875 -1.296875 L 5.203125 -32.15625 Z M 1.625 -32.390625 "/></g></g><g transform="translate(165.746645, 329.84532)"><g/></g><g transform="translate(176.598206, 329.84532)"><g><path d="M 1.71875 0 L 1.71875 -1.0625 L 5.328125 -1.296875 L 5.328125 -32.15625 L 1.71875 -32.390625 L 1.71875 -33.453125 L 14.25 -33.453125 C 15.59375 -33.453125 16.816406 -33.390625 17.921875 -33.265625 C 19.023438 -33.140625 20.113281 -32.90625 21.1875 -32.5625 C 22.269531 -32.226562 23.171875 -31.785156 23.890625 -31.234375 C 24.617188 -30.691406 25.207031 -29.972656 25.65625 -29.078125 C 26.101562 -28.179688 26.328125 -27.128906 26.328125 -25.921875 C 26.328125 -24.972656 26.113281 -24.09375 25.6875 -23.28125 C 25.269531 -22.476562 24.734375 -21.8125 24.078125 -21.28125 C 23.429688 -20.75 22.675781 -20.273438 21.8125 -19.859375 C 20.957031 -19.453125 20.128906 -19.140625 19.328125 -18.921875 C 18.535156 -18.703125 17.742188 -18.535156 16.953125 -18.421875 L 16.953125 -18.328125 C 18.523438 -18.328125 19.972656 -18.144531 21.296875 -17.78125 C 22.628906 -17.414062 23.789062 -16.875 24.78125 -16.15625 C 25.78125 -15.4375 26.5625 -14.492188 27.125 -13.328125 C 27.6875 -12.160156 27.96875 -10.835938 27.96875 -9.359375 C 27.96875 -8.015625 27.722656 -6.804688 27.234375 -5.734375 C 26.753906 -4.660156 26.109375 -3.769531 25.296875 -3.0625 C 24.484375 -2.363281 23.523438 -1.78125 22.421875 -1.3125 C 21.316406 -0.84375 20.171875 -0.503906 18.984375 -0.296875 C 17.796875 -0.0976562 16.554688 0 15.265625 0 Z M 11.328125 -1.53125 C 12.171875 -1.375 12.984375 -1.296875 13.765625 -1.296875 C 16.242188 -1.296875 18.191406 -2.015625 19.609375 -3.453125 C 21.023438 -4.890625 21.734375 -6.84375 21.734375 -9.3125 C 21.734375 -11.945312 21 -13.960938 19.53125 -15.359375 C 18.070312 -16.765625 16.054688 -17.46875 13.484375 -17.46875 C 12.742188 -17.46875 12.023438 -17.410156 11.328125 -17.296875 Z M 11.328125 -18.890625 C 11.984375 -18.796875 12.582031 -18.75 13.125 -18.75 C 17.863281 -18.75 20.234375 -21.09375 20.234375 -25.78125 C 20.234375 -27.78125 19.703125 -29.34375 18.640625 -30.46875 C 17.578125 -31.59375 15.953125 -32.15625 13.765625 -32.15625 C 12.984375 -32.15625 12.171875 -32.078125 11.328125 -31.921875 Z M 11.328125 -18.890625 "/></g></g><g transform="translate(206.645079, 329.84532)"><g><path d="M 2.25 -16.625 C 2.25 -19.84375 2.828125 -22.78125 3.984375 -25.4375 C 5.140625 -28.09375 6.835938 -30.226562 9.078125 -31.84375 C 11.328125 -33.457031 13.910156 -34.265625 16.828125 -34.265625 C 21.234375 -34.265625 24.785156 -32.707031 27.484375 -29.59375 C 30.179688 -26.488281 31.53125 -22.414062 31.53125 -17.375 C 31.53125 -15.53125 31.34375 -13.738281 30.96875 -12 C 30.601562 -10.269531 30.03125 -8.625 29.25 -7.0625 C 28.46875 -5.507812 27.519531 -4.148438 26.40625 -2.984375 C 25.289062 -1.828125 23.921875 -0.898438 22.296875 -0.203125 C 20.671875 0.484375 18.894531 0.828125 16.96875 0.828125 C 12.394531 0.828125 8.796875 -0.765625 6.171875 -3.953125 C 3.554688 -7.148438 2.25 -11.375 2.25 -16.625 Z M 8.53125 -17.140625 C 8.53125 -14.054688 8.832031 -11.273438 9.4375 -8.796875 C 10.050781 -6.328125 10.992188 -4.320312 12.265625 -2.78125 C 13.546875 -1.238281 15.066406 -0.46875 16.828125 -0.46875 C 19.453125 -0.46875 21.507812 -1.988281 23 -5.03125 C 24.5 -8.082031 25.25 -12.132812 25.25 -17.1875 C 25.25 -22.4375 24.515625 -26.378906 23.046875 -29.015625 C 21.585938 -31.660156 19.5625 -32.984375 16.96875 -32.984375 C 16.0625 -32.984375 15.195312 -32.796875 14.375 -32.421875 C 13.5625 -32.046875 12.796875 -31.441406 12.078125 -30.609375 C 11.359375 -29.785156 10.738281 -28.765625 10.21875 -27.546875 C 9.707031 -26.335938 9.296875 -24.84375 8.984375 -23.0625 C 8.679688 -21.28125 8.53125 -19.304688 8.53125 -17.140625 Z M 8.53125 -17.140625 "/></g></g><g transform="translate(240.418515, 329.84532)"><g><path d="M 2.25 -16.625 C 2.25 -19.84375 2.828125 -22.78125 3.984375 -25.4375 C 5.140625 -28.09375 6.835938 -30.226562 9.078125 -31.84375 C 11.328125 -33.457031 13.910156 -34.265625 16.828125 -34.265625 C 21.234375 -34.265625 24.785156 -32.707031 27.484375 -29.59375 C 30.179688 -26.488281 31.53125 -22.414062 31.53125 -17.375 C 31.53125 -15.53125 31.34375 -13.738281 30.96875 -12 C 30.601562 -10.269531 30.03125 -8.625 29.25 -7.0625 C 28.46875 -5.507812 27.519531 -4.148438 26.40625 -2.984375 C 25.289062 -1.828125 23.921875 -0.898438 22.296875 -0.203125 C 20.671875 0.484375 18.894531 0.828125 16.96875 0.828125 C 12.394531 0.828125 8.796875 -0.765625 6.171875 -3.953125 C 3.554688 -7.148438 2.25 -11.375 2.25 -16.625 Z M 8.53125 -17.140625 C 8.53125 -14.054688 8.832031 -11.273438 9.4375 -8.796875 C 10.050781 -6.328125 10.992188 -4.320312 12.265625 -2.78125 C 13.546875 -1.238281 15.066406 -0.46875 16.828125 -0.46875 C 19.453125 -0.46875 21.507812 -1.988281 23 -5.03125 C 24.5 -8.082031 25.25 -12.132812 25.25 -17.1875 C 25.25 -22.4375 24.515625 -26.378906 23.046875 -29.015625 C 21.585938 -31.660156 19.5625 -32.984375 16.96875 -32.984375 C 16.0625 -32.984375 15.195312 -32.796875 14.375 -32.421875 C 13.5625 -32.046875 12.796875 -31.441406 12.078125 -30.609375 C 11.359375 -29.785156 10.738281 -28.765625 10.21875 -27.546875 C 9.707031 -26.335938 9.296875 -24.84375 8.984375 -23.0625 C 8.679688 -21.28125 8.53125 -19.304688 8.53125 -17.140625 Z M 8.53125 -17.140625 "/></g></g><g transform="translate(274.19195, 329.84532)"><g><path d="M 1.71875 0 L 1.71875 -1.0625 L 5.328125 -1.296875 L 5.328125 -32.15625 L 1.71875 -32.390625 L 1.71875 -33.453125 L 14.9375 -33.453125 L 14.9375 -32.390625 L 11.328125 -32.15625 L 11.328125 -17.90625 L 11.375 -17.90625 L 24.65625 -32.15625 L 21.640625 -32.390625 L 21.640625 -33.453125 L 29.234375 -33.453125 L 29.234375 -32.390625 L 26.484375 -32.15625 L 15.59375 -20.65625 L 30.46875 -1.296875 L 33 -1.0625 L 33 0 L 19.625 0 L 19.625 -1.0625 L 22.640625 -1.296875 L 11.375 -16.6875 L 11.328125 -16.6875 L 11.328125 -1.296875 L 14.9375 -1.0625 L 14.9375 0 Z M 1.71875 0 "/></g></g><g transform="translate(306.559135, 329.84532)"><g><path d="M 13.484375 -32.984375 C 12.359375 -32.984375 11.367188 -32.847656 10.515625 -32.578125 C 9.660156 -32.316406 8.941406 -31.941406 8.359375 -31.453125 C 7.785156 -30.972656 7.351562 -30.390625 7.0625 -29.703125 C 6.78125 -29.023438 6.640625 -28.28125 6.640625 -27.46875 C 6.640625 -26.894531 6.71875 -26.328125 6.875 -25.765625 C 7.03125 -25.203125 7.363281 -24.625 7.875 -24.03125 C 8.394531 -23.445312 9.140625 -22.84375 10.109375 -22.21875 C 11.085938 -21.59375 12.40625 -20.921875 14.0625 -20.203125 C 15.96875 -19.328125 17.582031 -18.503906 18.90625 -17.734375 C 20.226562 -16.972656 21.300781 -16.160156 22.125 -15.296875 C 22.957031 -14.441406 23.554688 -13.476562 23.921875 -12.40625 C 24.285156 -11.34375 24.46875 -10.066406 24.46875 -8.578125 C 24.46875 -7.453125 24.238281 -6.328125 23.78125 -5.203125 C 23.332031 -4.078125 22.648438 -3.066406 21.734375 -2.171875 C 20.828125 -1.285156 19.679688 -0.5625 18.296875 0 C 16.910156 0.550781 15.289062 0.828125 13.4375 0.828125 C 11.375 0.828125 9.640625 0.632812 8.234375 0.25 C 6.828125 -0.132812 5.695312 -0.628906 4.84375 -1.234375 C 3.988281 -1.847656 3.375 -2.539062 3 -3.3125 C 2.625 -4.09375 2.4375 -4.875 2.4375 -5.65625 C 2.4375 -6.164062 2.515625 -6.644531 2.671875 -7.09375 C 2.828125 -7.539062 3.054688 -7.929688 3.359375 -8.265625 C 3.671875 -8.597656 4.046875 -8.863281 4.484375 -9.0625 C 4.929688 -9.257812 5.4375 -9.359375 6 -9.359375 C 6.519531 -9.359375 6.988281 -9.265625 7.40625 -9.078125 C 7.832031 -8.898438 8.1875 -8.660156 8.46875 -8.359375 C 8.757812 -8.054688 8.988281 -7.695312 9.15625 -7.28125 C 9.320312 -6.863281 9.40625 -6.414062 9.40625 -5.9375 C 9.40625 -4.820312 9.082031 -3.984375 8.4375 -3.421875 C 7.800781 -2.859375 6.972656 -2.578125 5.953125 -2.578125 L 5.953125 -2.484375 C 6.066406 -2.359375 6.28125 -2.1875 6.59375 -1.96875 C 6.914062 -1.75 7.363281 -1.53125 7.9375 -1.3125 C 8.507812 -1.09375 9.210938 -0.898438 10.046875 -0.734375 C 10.878906 -0.578125 11.867188 -0.5 13.015625 -0.5 C 13.953125 -0.5 14.882812 -0.625 15.8125 -0.875 C 16.738281 -1.125 17.566406 -1.484375 18.296875 -1.953125 C 19.023438 -2.421875 19.613281 -2.988281 20.0625 -3.65625 C 20.519531 -4.332031 20.75 -5.09375 20.75 -5.9375 C 20.75 -6.65625 20.613281 -7.328125 20.34375 -7.953125 C 20.082031 -8.578125 19.582031 -9.210938 18.84375 -9.859375 C 18.113281 -10.503906 17.09375 -11.195312 15.78125 -11.9375 C 14.476562 -12.6875 12.78125 -13.53125 10.6875 -14.46875 C 9.144531 -15.125 7.875 -15.84375 6.875 -16.625 C 5.882812 -17.414062 5.101562 -18.253906 4.53125 -19.140625 C 3.96875 -20.023438 3.578125 -20.945312 3.359375 -21.90625 C 3.140625 -22.863281 3.03125 -23.851562 3.03125 -24.875 C 3.03125 -26.15625 3.265625 -27.363281 3.734375 -28.5 C 4.203125 -29.644531 4.878906 -30.640625 5.765625 -31.484375 C 6.660156 -32.335938 7.757812 -33.015625 9.0625 -33.515625 C 10.363281 -34.015625 11.851562 -34.265625 13.53125 -34.265625 C 15.132812 -34.265625 16.535156 -34.078125 17.734375 -33.703125 C 18.929688 -33.328125 19.921875 -32.832031 20.703125 -32.21875 C 21.484375 -31.601562 22.066406 -30.882812 22.453125 -30.0625 C 22.847656 -29.238281 23.046875 -28.382812 23.046875 -27.5 C 23.046875 -27.03125 22.96875 -26.578125 22.8125 -26.140625 C 22.65625 -25.710938 22.425781 -25.335938 22.125 -25.015625 C 21.832031 -24.703125 21.46875 -24.445312 21.03125 -24.25 C 20.59375 -24.050781 20.09375 -23.953125 19.53125 -23.953125 C 19.007812 -23.953125 18.535156 -24.035156 18.109375 -24.203125 C 17.691406 -24.378906 17.332031 -24.613281 17.03125 -24.90625 C 16.726562 -25.207031 16.492188 -25.5625 16.328125 -25.96875 C 16.160156 -26.375 16.078125 -26.820312 16.078125 -27.3125 C 16.078125 -27.851562 16.171875 -28.335938 16.359375 -28.765625 C 16.546875 -29.203125 16.800781 -29.5625 17.125 -29.84375 C 17.445312 -30.132812 17.828125 -30.351562 18.265625 -30.5 C 18.703125 -30.65625 19.171875 -30.734375 19.671875 -30.734375 L 19.671875 -30.828125 C 19.578125 -30.929688 19.390625 -31.101562 19.109375 -31.34375 C 18.828125 -31.59375 18.4375 -31.835938 17.9375 -32.078125 C 17.4375 -32.316406 16.816406 -32.523438 16.078125 -32.703125 C 15.347656 -32.890625 14.484375 -32.984375 13.484375 -32.984375 Z M 13.484375 -32.984375 "/></g></g></g></svg>